<svg width="311" height="82" viewBox="0 0 311 82" fill="none" xmlns="http://www.w3.org/2000/svg">
<g clip-path="url(#clip0_50_32)">
<rect width="82" height="82" rx="41" fill="#1A9D7D"/>
<path d="M55.7607 6.95355C55.2014 4.50526 51.7105 4.5199 51.1746 6.97112L51.1512 7.07069L51.1102 7.25812C50.8087 8.61115 50.1122 9.84419 49.1091 10.8009C48.106 11.7576 46.8414 12.3949 45.4756 12.632C42.9248 13.0743 42.9248 16.7408 45.4756 17.183C46.8463 17.4211 48.115 18.0623 49.1196 19.0247C50.1242 19.9871 50.8193 21.227 51.116 22.5863L51.1717 22.844C51.7105 25.2952 55.2043 25.3098 55.7607 22.8615L55.8281 22.5628C56.1373 21.2085 56.8399 19.9758 57.8477 19.0197C58.8554 18.0635 60.1233 17.4266 61.4919 17.1889C64.0486 16.7438 64.0486 13.0713 61.4919 12.6262C58.7069 12.143 56.4841 10.0432 55.8398 7.29619L55.7871 7.07069L55.7607 6.95355Z" fill="white"/>
<path d="M61.8111 42.7656C61.8111 43.4262 61.5538 44.1234 61.0023 44.6739C59.6051 46.0869 58.208 47.5181 56.774 48.8944C55.5056 50.1055 53.8143 49.9954 52.4907 48.6742C48.1522 44.3436 43.8321 40.0131 39.5119 35.6826C38.4089 34.5816 37.3059 33.4806 36.2029 32.3796C34.8425 31.0034 34.8425 29.3152 36.2029 27.939C37.4897 26.6362 38.795 25.3333 40.1002 24.0488C41.4238 22.746 43.1335 22.7277 44.4387 24.0305C49.917 29.4987 55.3953 34.9853 60.8736 40.4718C61.4618 41.059 61.8111 41.7563 61.8111 42.7472V42.7656Z" fill="white"/>
<path d="M49.6968 50.3429C43.9244 52.6549 39.8249 56.802 37.4901 62.5638C32.4347 57.5176 27.416 52.4898 22.3789 47.462C25.118 46.2876 27.6917 44.7646 29.8242 42.6176C31.9383 40.4891 33.4642 37.9385 34.6407 35.2594C39.6594 40.2872 44.6781 45.2967 49.7152 50.3429H49.6968Z" fill="white"/>
<path d="M36.9015 67.6284C36.9015 68.3991 36.589 69.0964 36.0007 69.7019C34.6587 71.0598 33.3167 72.3994 31.9563 73.7389C30.6695 75.005 28.9782 74.9867 27.673 73.7389C26.57 72.6746 25.5037 71.5736 24.4191 70.491C20.099 66.1788 15.7972 61.8666 11.4771 57.5544C9.84097 55.9213 9.84097 54.3616 11.4771 52.7284C12.672 51.5357 13.867 50.3246 15.0803 49.1319C16.5142 47.7006 18.1871 47.6823 19.621 49.0952C25.0441 54.5084 30.4489 59.9215 35.872 65.3347C36.4971 65.9586 36.9199 66.6742 36.9199 67.6651L36.9015 67.6284Z" fill="white"/>
<path d="M67.1979 87.0934C66.2787 87.1117 65.5617 86.6897 64.9183 86.0474C60.5247 81.6435 56.131 77.2579 51.7373 72.854C48.2996 69.4226 44.8619 65.9728 41.4058 62.5414C41.0565 62.1928 41.0014 61.9542 41.2404 61.4955C42.9684 58.2659 45.4134 55.7887 48.6673 54.0639C49.0901 53.8437 49.3475 53.8253 49.7152 54.2107C57.5465 62.0827 65.4147 69.918 73.2644 77.7717C74.6616 79.1663 74.6616 80.8545 73.2644 82.2674C71.996 83.5519 70.7091 84.8363 69.4223 86.1208C68.8156 86.7264 68.117 87.1117 67.1979 87.0934Z" fill="white"/>
</g>
<path d="M135.042 66H124.471L121.408 56.4207H106.094L103.061 66H92.5503L108.226 22.938H119.727L135.042 66ZM119.186 48.9734L114.562 34.4993C114.221 33.4182 113.981 32.127 113.841 30.6255H113.601C113.501 31.8867 113.25 33.1379 112.85 34.3792L108.166 48.9734H119.186ZM150.116 66H140.417V22.938H150.116V66Z" fill="#1A9D7D"/>
<path d="M185.581 66H159.936V22.938H169.635V58.1323H185.581V66ZM218.103 53.3276H198.043C198.364 57.792 201.176 60.0242 206.481 60.0242C209.865 60.0242 212.838 59.2234 215.4 57.6218V64.4685C212.557 65.99 208.864 66.7507 204.319 66.7507C199.354 66.7507 195.501 65.3794 192.758 62.6367C190.015 59.874 188.644 56.0303 188.644 51.1055C188.644 46.0005 190.125 41.9565 193.088 38.9736C196.051 35.9907 199.695 34.4993 204.019 34.4993C208.503 34.4993 211.967 35.8306 214.409 38.4932C216.872 41.1558 218.103 44.7693 218.103 49.3337V53.3276ZM209.304 47.502C209.304 43.0977 207.522 40.8955 203.959 40.8955C202.438 40.8955 201.116 41.5261 199.995 42.7874C198.894 44.0486 198.223 45.6201 197.983 47.502H209.304ZM253.898 62.4866C253.898 68.1921 252.246 72.6064 248.943 75.7295C245.64 78.8726 240.855 80.4441 234.589 80.4441C230.445 80.4441 227.162 79.8535 224.739 78.6724V70.6846C227.902 72.5264 231.095 73.4473 234.319 73.4473C237.522 73.4473 240.004 72.5964 241.766 70.8948C243.528 69.2131 244.408 66.9209 244.408 64.0181V61.5857H244.288C242.126 65.0291 238.933 66.7507 234.709 66.7507C230.785 66.7507 227.672 65.3694 225.37 62.6067C223.068 59.844 221.917 56.1404 221.917 51.4958C221.917 46.2908 223.198 42.1567 225.76 39.0938C228.323 36.0308 231.696 34.4993 235.88 34.4993C239.624 34.4993 242.427 35.9407 244.288 38.8235H244.408V35.25H253.898V62.4866ZM244.529 51.2256V48.7932C244.529 46.8513 243.948 45.1997 242.787 43.8384C241.646 42.457 240.154 41.7664 238.312 41.7664C236.21 41.7664 234.559 42.5872 233.358 44.2288C232.156 45.8704 231.556 48.1826 231.556 51.1655C231.556 53.728 232.126 55.76 233.268 57.2615C234.409 58.7429 235.97 59.4836 237.952 59.4836C239.914 59.4836 241.496 58.7329 242.697 57.2314C243.918 55.71 244.529 53.708 244.529 51.2256ZM287.41 66H278.432V61.5857H278.312C276.25 65.0291 273.197 66.7507 269.153 66.7507C266.17 66.7507 263.817 65.9099 262.096 64.2283C260.394 62.5266 259.543 60.2644 259.543 57.4417C259.543 51.4758 263.077 48.0325 270.144 47.1116L278.492 46.0005C278.492 42.6372 276.67 40.9556 273.026 40.9556C269.363 40.9556 265.879 42.0466 262.576 44.2288V37.0818C263.897 36.4011 265.699 35.8005 267.981 35.28C270.284 34.7595 272.376 34.4993 274.258 34.4993C283.026 34.4993 287.41 38.8735 287.41 47.6221V66ZM278.492 53.5078V51.4358L272.906 52.1565C269.823 52.5569 268.282 53.9482 268.282 56.3306C268.282 57.4116 268.652 58.3025 269.393 59.0032C270.154 59.6838 271.175 60.0242 272.456 60.0242C274.238 60.0242 275.689 59.4136 276.81 58.1924C277.931 56.9512 278.492 55.3896 278.492 53.5078ZM304.407 66H294.918V20.4756H304.407V66Z" fill="#193A32"/>
<defs>
<clipPath id="clip0_50_32">
<rect width="82" height="82" rx="41" fill="white"/>
</clipPath>
</defs>
</svg>
