<svg width="24" height="24" viewBox="0 0 24 24" fill="none" xmlns="http://www.w3.org/2000/svg">
    <path d="M5.5 3H17L19 4.5V22H17.5L11.5 18L5.5 22H4V4.5L5.5 3Z" fill="#FFD336"/>
    <mask id="mask0_332_4437" style="mask-type:luminance" maskUnits="userSpaceOnUse" x="3" y="2" width="18" height="21">
    <path fill-rule="evenodd" clip-rule="evenodd" d="M3 2H20.0388V22.8467H3V2Z" fill="white"/>
    </mask>
    <g mask="url(#mask0_332_4437)">
    <path fill-rule="evenodd" clip-rule="evenodd" d="M3.84082 22.61C4.10882 22.768 4.40382 22.847 4.69882 22.847C4.98482 22.847 5.26982 22.773 5.52982 22.627L11.5448 19.253L17.5048 22.62C18.0368 22.92 18.6708 22.914 19.1968 22.606C19.7248 22.299 20.0388 21.75 20.0388 21.14V6.604C20.0388 3.679 18.0928 2 14.7008 2H8.34182C4.94682 2 2.99982 3.611 2.99982 6.421V21.145C2.99982 21.754 3.31382 22.303 3.84082 22.61ZM8.34182 3.5C5.79282 3.5 4.49982 4.482 4.49982 6.421V21.145C4.49982 21.239 4.55382 21.29 4.59882 21.316C4.64382 21.344 4.71482 21.364 4.79682 21.318L11.1788 17.738C11.4068 17.611 11.6858 17.61 11.9148 17.739L18.2418 21.313C18.3248 21.361 18.3958 21.339 18.4408 21.312C18.4858 21.285 18.5388 21.234 18.5388 21.14V6.604C18.5388 5.837 18.5388 3.5 14.7008 3.5H8.34182Z" fill="black"/>
    </g>
    <path fill-rule="evenodd" clip-rule="evenodd" d="M15.1396 10.2285H7.82159C7.40759 10.2285 7.07159 9.89252 7.07159 9.47852C7.07159 9.06452 7.40759 8.72852 7.82159 8.72852H15.1396C15.5536 8.72852 15.8896 9.06452 15.8896 9.47852C15.8896 9.89252 15.5536 10.2285 15.1396 10.2285" fill="black"/>
</svg>    